<svg width="64" height="64" viewBox="0 0 64 64" fill="none" xmlns="http://www.w3.org/2000/svg">
  <!-- Shield Outline -->
  <path d="M32 4 L8 12 L8 32 Q8 48 20 56 L32 60 L44 56 Q56 48 56 32 L56 12 Z" 
        stroke="#9CA3AF" stroke-width="1.5" fill="none"/>
  
  <!-- Left side (Dark Blue) -->
  <path d="M32 4 L8 12 L8 32 Q8 48 20 56 L32 60 L32 4 Z" fill="#1E3A5F"/>
  
  <!-- Right side (Dark Grey) -->
  <path d="M32 4 L56 12 L56 32 Q56 48 44 56 L32 60 L32 4 Z" fill="#4A5568"/>
  
  <!-- House Icon at Top -->
  <!-- Roof (Blue) -->
  <path d="M24 20 L32 14 L40 20 L40 28 L24 28 Z" fill="#1E3A5F"/>
  <!-- Chimney (Blue) -->
  <path d="M26 18 L28 18 L28 22 L26 22 Z" fill="#1E3A5F"/>
  <!-- House Body (Grey) -->
  <path d="M26 28 L38 28 L38 36 L26 36 Z" fill="#4A5568"/>
  <!-- Windows (White) -->
  <rect x="28" y="30" width="3" height="3" fill="white"/>
  <rect x="33" y="30" width="3" height="3" fill="white"/>
  
  <!-- Key Icon (Blue) -->
  <!-- Key Head (Circular) -->
  <circle cx="32" cy="42" r="6" fill="#1E3A5F"/>
  <!-- Small House in Key Head (White) -->
  <path d="M30 40 L32 38 L34 40 L34 42 L30 42 Z" fill="white"/>
  <rect x="31" y="42" width="2" height="2" fill="white"/>
  <!-- Key Shaft -->
  <rect x="31" y="48" width="2" height="8" fill="#1E3A5F"/>
  <!-- Key Bit -->
  <rect x="31" y="54" width="4" height="2" fill="#1E3A5F"/>
  <rect x="33" y="55" width="2" height="1" fill="#1E3A5F"/>
</svg>
